:SAMPLES-PER-SECOND 30
:FULLY-SPECIFIED
:DEGREES
221
root  65.8208 29.0879 32.3329 -159.648 7.95898 177.736
RightUpLeg  -58.7987 -30.4369 -4.65063
RightLeg  59.6795 5.72089 8.32446
RightFoot  -6.49689 -0.0130343 0.147914
RightToes  -47.0227 -0.276872 -0.35126
Spine  16.0188 4.30696 5.58819
Spine1  28.5378 11.4256 4.94197
HEad  4.23903 2.39602 -8.89399
LeftShoulder1  0 -2.42657e-020 -4.95415e-022
LeftArm  -14.9703 -14.4652 -96.0686
LeftForeArm  46.9545 -30.5658 -5.95084
LeftHand  -0.397664 -9.52521 4.4035
RightShoulder  0 2.42657e-020 1.07489e-018
RightArm  -78.2842 30.4365 57.267
RightForeArm  31.2949 11.6033 2.07112
RightHand  -0.596375 22.5675 -2.61904
LeftUpLeg  -70.282 3.34711 -1.49397
LeftLeg  65.5066 -0.74084 -1.39582
LeftFoot  -8.17874 -0.00147104 -0.0205846
LeftToes  -10.7468 2.37847e-007 4.89147e-008
222
root  65.702 29.7952 31.4632 -157.037 6.78746 178.848
RightUpLeg  -56.5016 -30.7924 -3.29804
RightLeg  54.4108 5.94693 7.16326
RightFoot  -4.82435 0.000782676 0.396186
RightToes  -47.6572 -0.282356 -0.354167
Spine  14.9514 3.65497 5.72068
Spine1  27.0842 10.1427 5.10611
HEad  3.32876 4.20461 -8.7155
LeftShoulder1  0 -2.42657e-020 -4.95415e-022
LeftArm  -17.1571 -11.8891 -94.2157
LeftForeArm  44.3917 -30.3262 -5.89764
LeftHand  -0.333789 -9.36661 3.70557
RightShoulder  0 2.42657e-020 1.07489e-018
RightArm  -69.869 25.1367 60.2569
RightForeArm  22.4458 19.2305 3.52246
RightHand  0.421485 23.0554 2.437
LeftUpLeg  -69.5291 5.29949 -1.15299
LeftLeg  52.2423 1.50966 1.70127
LeftFoot  -7.7537 -0.0432217 -0.637799
LeftToes  -9.89804 2.37847e-007 4.89147e-008
223
root  65.411 30.4383 30.3002 -155.751 6.43953 -179.939
RightUpLeg  -52.1855 -30.5402 -3.21586
RightLeg  48.5392 6.06862 5.96528
RightFoot  -2.68555 0.00511838 0.596063
RightToes  -51.1764 -0.313339 -0.369177
Spine  13.6749 3.06411 5.30671
Spine1  25.1662 8.62872 4.90803
HEad  4.26939 6.26089 -8.42844
LeftShoulder1  0 -2.42657e-020 -4.95415e-022
LeftArm  -18.8943 -8.86282 -91.9749
LeftForeArm  44.7528 -28.5778 -5.48786
LeftHand  -0.327847 -9.42502 3.60816
RightShoulder  0 2.42657e-020 1.07489e-018
RightArm  -62.3712 18.0785 63.4501
RightForeArm  15.5326 27.2491 5.2052
RightHand  1.31364 23.9997 6.54624
LeftUpLeg  -66.7543 7.36178 -0.823572
LeftLeg  43.2543 1.71817 1.41356
LeftFoot  -8.23482 -0.0488793 -0.679009
LeftToes  -7.75747 2.37847e-007 4.89147e-008
224
root  64.9712 30.9362 28.7733 -156.896 5.95741 -178.999
RightUpLeg  -44.466 -30.1138 -5.51329
RightLeg  42.7573 6.39234 5.13929
RightFoot  -0.937825 0.00229088 0.65795
RightToes  -51.4083 -0.315412 -0.370099
Spine  12.7794 2.15784 4.57565
Spine1  23.8698 6.19118 4.70733
HEad  6.52656 8.42387 -8.43937
LeftShoulder1  0 -2.42657e-020 -4.95415e-022
LeftArm  -22.1061 -5.80265 -90.2228
LeftForeArm  48.4294 -26.2585 -4.96028
LeftHand  -0.283146 -10.0905 2.83836
RightShoulder  0 2.42657e-020 1.07489e-018
RightArm  -57.5166 10.4474 66.8172
RightForeArm  4.5068 36.4347 7.46911
RightHand  2.29993 23.3473 11.4714
LeftUpLeg  -61.6486 9.82613 -1.94168
LeftLeg  39.726 1.62507 1.17699
LeftFoot  -3.18522 -0.00938121 -0.337419
LeftToes  -15.9152 2.37847e-007 4.89147e-008
225
root  64.3537 31.4801 27.2913 -157.917 5.75264 -178.621
RightUpLeg  -37.2245 -27.8138 -8.81668
RightLeg  37.0236 4.73484 3.09141
RightFoot  3.55073 -0.0167073 0.916383
RightToes  -55.2486 -0.350257 -0.384133
Spine  11.5523 1.03551 3.3745
Spine1  21.8054 3.11689 4.19674
HEad  8.86685 10.9088 -8.48518
LeftShoulder1  0 -2.42657e-020 -4.95415e-022
LeftArm  -26.0118 -1.87734 -88.5925
LeftForeArm  50.9076 -24.5908 -4.59411
LeftHand  -0.202609 -10.4412 1.84845
RightShoulder  0 2.42657e-020 1.07489e-018
RightArm  -56.1108 3.34213 70.4875
RightForeArm  -0.380153 45.1081 10.1852
RightHand  3.10744 23.4463 15.268
LeftUpLeg  -57.6334 12.3295 -4.0612
LeftLeg  37.8306 -1.10209 -0.752407
LeftFoot  -0.0300948 -2.39485e-005 -0.0911865
LeftToes  -17.655 2.37847e-007 4.89147e-008
226
root  63.6985 31.9943 25.6519 -159.179 4.25343 -178.12
RightUpLeg  -30.5406 -26.0027 -11.191
RightLeg  33.087 1.15706 0.639718
RightFoot  8.70456 -0.0140842 0.562558
RightToes  -55.859 -0.35588 -0.386148
Spine  10.7469 -0.306259 2.70884
Spine1  20.4942 -0.272797 4.10229
HEad  10.87 13.3573 -8.77509
LeftShoulder1  0 -2.42657e-020 -4.95415e-022
LeftArm  -28.9382 1.44254 -87.5641
LeftForeArm  50.5804 -23.2547 -4.31203
LeftHand  -0.171645 -9.978 1.59722
RightShoulder  0 2.42657e-020 1.07489e-018
RightArm  -55.7639 -4.92394 73.7237
RightForeArm  -0.578264 58.3346 16.6289
RightHand  3.67438 23.093 18.2207
LeftUpLeg  -52.7451 10.9456 -3.78599
LeftLeg  35.8038 -2.96016 -1.86162
LeftFoot  3.33602 0.00700896 -0.240697
LeftToes  -11.1065 2.37847e-007 4.89147e-008
227
root  63.1775 32.4093 24.0118 -160.539 3.4935 -177.014
RightUpLeg  -26.6233 -24.0133 -11.2729
RightLeg  32.754 -5.70347 -3.17269
RightFoot  13.6957 0.197301 -1.26522
RightToes  -51.4589 -0.315864 -0.370299
Spine  10.3931 -0.84219 2.62765
Spine1  20.0789 -1.30581 3.69924
HEad  12.1602 15.652 -9.20459
LeftShoulder1  0 -2.42657e-020 -4.95415e-022
LeftArm  -32.4649 3.65411 -87.4371
LeftForeArm  51.0478 -21.9892 -4.04885
LeftHand  -0.144237 -9.56324 1.3552
RightShoulder  0 2.42657e-020 1.07489e-018
RightArm  -54.1303 -13.7108 75.2915
RightForeArm  8.99762 71.2703 31.4651
RightHand  3.45231 22.0828 17.934
LeftUpLeg  -48.2067 8.0614 -1.72381
LeftLeg  35.3695 -0.772897 -0.481636
LeftFoot  2.32466 -0.00279104 -0.081738
LeftToes  -4.9043 2.37847e-007 4.89147e-008
228
root  62.7378 32.8616 22.4819 -161.17 2.60435 -176.354
RightUpLeg  -25.3227 -22.9416 -10.0659
RightLeg  34.7295 -14.1847 -8.39731
RightFoot  17.1733 0.779506 -4.78122
RightToes  -38.3487 -0.205428 -0.305605
Spine  9.74345 -1.46279 2.41468
Spine1  18.999 -2.51526 3.12877
HEad  13.0329 17.8522 -9.59168
LeftShoulder1  0 -2.42657e-020 -4.95415e-022
LeftArm  -35.3722 6.27045 -87.132
LeftForeArm  51.3514 -21.2462 -3.89655
LeftHand  -0.13537 -9.73212 1.22091
RightShoulder  0 2.42657e-020 1.07489e-018
RightArm  -53.107 -21.4789 76.664
RightForeArm  42.996 79.2435 69.1114
RightHand  3.30072 21.8528 17.3523
LeftUpLeg  -44.1057 5.11504 -0.376362
LeftLeg  33.9591 1.14463 0.663872
LeftFoot  0.990737 -0.00452015 -0.0268765
LeftToes  -3.95211 2.37847e-007 4.89147e-008
229
root  62.4048 33.3154 21.0437 -161.546 1.2171 -175.569
RightUpLeg  -25.175 -22.2049 -7.8038
RightLeg  36.983 -14.9426 -9.62094
RightFoot  16.3831 0.777959 -5.02261
RightToes  -25.4789 -0.114059 -0.219348
Spine  9.13006 -2.00729 2.29425
Spine1  17.906 -3.62434 2.85628
HEad  13.8511 19.9215 -10.5281
LeftShoulder1  0 -2.42657e-020 -4.95415e-022
LeftArm  -36.7001 8.34144 -86.6862
LeftForeArm  50.9336 -20.8694 -3.82096
LeftHand  -0.118135 -9.48361 1.05492
RightShoulder  0 2.42657e-020 1.07489e-018
RightArm  -53.722 -27.3055 77.8628
RightForeArm  96.4821 78.1166 122.175
RightHand  3.40729 22.7006 17.2313
LeftUpLeg  -40.2601 4.22774 0.330071
LeftLeg  31.7902 0.483139 0.254078
LeftFoot  0.27756 -0.00122385 -0.0481143
LeftToes  -3.45254 2.37847e-007 4.89147e-008
230
root  62.063 33.6947 19.6904 -162.075 -0.991837 -175.601
RightUpLeg  -25.3212 -22.292 -5.83948
RightLeg  38.4274 -7.20208 -4.98671
RightFoot  11.0441 0.190871 -1.59646
RightToes  -27.2911 -0.125719 -0.232704
Spine  8.61226 -2.72949 1.97562
Spine1  16.947 -5.0611 2.19552
HEad  14.2822 22.3765 -11.5909
LeftShoulder1  0 -2.42657e-020 -4.95415e-022
LeftArm  -37.051 10.0384 -85.9041
LeftForeArm  50.3005 -20.9859 -3.84564
LeftHand  -0.0833361 -9.4051 0.643575
RightShoulder  0 2.42657e-020 1.07489e-018
RightArm  -54.48 -30.8566 79.04
RightForeArm  121.186 72.1925 146.19
RightHand  3.37405 23.4966 16.4956
LeftUpLeg  -36.164 3.08086 0.431776
LeftLeg  28.8361 -1.71717 -0.809737
LeftFoot  0.318453 0.000158197 -0.0569348
LeftToes  -3.57649 2.37847e-007 4.89147e-008
231
root  61.7332 34.0164 18.4268 -162.584 -3.23488 -175.717
RightUpLeg  -26.0247 -20.5361 -3.49517
RightLeg  39.5527 -2.6164 -1.91184
RightFoot  6.98437 0.0434371 -0.334192
RightToes  -28.483 -0.133615 -0.241285
Spine  8.31014 -3.21358 1.57598
Spine1  16.3761 -5.96975 1.30065
HEad  13.936 24.5541 -12.5115
LeftShoulder1  0 -2.42657e-020 -4.95415e-022
LeftArm  -36.6641 10.8338 -84.9705
LeftForeArm  49.7769 -21.2841 -3.90706
LeftHand  -0.0638815 -9.49928 0.399175
RightShoulder  0 2.42657e-020 1.07489e-018
RightArm  -54.7626 -31.9678 79.9293
RightForeArm  132.979 65.9863 156.256
RightHand  3.18384 24.1284 15.1913
LeftUpLeg  -32.5909 2.06371 0.448963
LeftLeg  26.4999 -3.95995 -1.6675
LeftFoot  0.842063 0.00196514 -0.106561
LeftToes  -4.69371 2.37847e-007 4.89147e-008
232
root  61.4162 34.2642 17.2669 -163.011 -4.77156 -175.936
RightUpLeg  -27.4561 -16.612 -1.31888
RightLeg  40.2269 -2.75446 -2.06229
RightFoot  4.97327 0.0275863 -0.257638
RightToes  -31.382 -0.153553 -0.261456
Spine  8.09823 -3.31567 1.10616
Spine1  15.9199 -6.0887 0.288551
HEad  13.5027 26.4343 -13.6821
LeftShoulder1  0 -2.42657e-020 -4.95415e-022
LeftArm  -36.524 11.0745 -84.3889
LeftForeArm  49.2451 -21.6985 -3.99246
LeftHand  -0.0287009 -9.36193 -0.0194411
RightShoulder  0 2.42657e-020 1.07489e-018
RightArm  -53.8675 -31.228 79.6537
RightForeArm  140.955 61.0145 161.037
RightHand  3.34907 25.4528 15.125
LeftUpLeg  -29.865 1.70051 0.132779
LeftLeg  25.4137 -5.62441 -2.24017
LeftFoot  1.38041 0.00411791 -0.181548
LeftToes  -5.57375 2.37847e-007 4.89147e-008
233
root  61.1312 34.4396 16.1099 -163.713 -6.49365 -175.939
RightUpLeg  -28.6532 -11.8762 0.719632
RightLeg  39.8164 -4.93967 -3.61807
RightFoot  2.41473 0.0129072 -0.234801
RightToes  -30.658 -0.148478 -0.256513
Spine  8.07211 -3.24185 0.725863
Spine1  15.7852 -5.8032 -0.693518
HEad  13.4425 28.0327 -14.365
LeftShoulder1  0 -2.42657e-020 -4.95415e-022
LeftArm  -36.5717 10.8289 -84.0943
LeftForeArm  48.4238 -22.0479 -4.06547
LeftHand  -0.02691 -9.1326 -0.0330362
RightShoulder  0 2.42657e-020 1.07489e-018
RightArm  -50.7133 -28.933 78.4873
RightForeArm  147.168 57.613 163.464
RightHand  3.19331 26.2497 14.0076
LeftUpLeg  -27.2696 0.654742 0.276933
LeftLeg  25.0357 -6.62446 -2.58544
LeftFoot  1.59332 0.00486113 -0.22732
LeftToes  -6.88643 2.37847e-007 4.89147e-008
234
root  60.863 34.5224 14.9541 -164.667 -8.78313 -175.906
RightUpLeg  -29.6545 -8.49158 2.61454
RightLeg  38.192 -6.83364 -4.69369
RightFoot  0.24639 0.000880666 -0.0319433
RightToes  -28.9644 -0.136855 -0.244704
Spine  8.19256 -3.10629 0.412493
Spine1  15.9003 -5.3878 -1.59441
HEad  14.3846 28.9709 -14.2523
LeftShoulder1  0 -2.42657e-020 -4.95415e-022
LeftArm  -36.6963 9.81307 -84.0278
LeftForeArm  47.5669 -21.9217 -4.04096
LeftHand  -0.0304228 -8.97433 0.0177249
RightShoulder  0 2.42657e-020 1.07489e-018
RightArm  -45.8017 -25.6375 77.2623
RightForeArm  153.181 55.9682 164.464
RightHand  2.70293 26.996 11.5989
LeftUpLeg  -25.0384 -1.63298 0.669602
LeftLeg  25.667 -6.77382 -2.72943
LeftFoot  1.28225 0.00205055 -0.183254
LeftToes  -7.90397 2.37847e-007 4.89147e-008
